Coordinates
version=1
nRows=7
nColumns=63
inDegrees=yes

Units are S.I. units (second, meters, Newtons, ...)
If the header above contains a line with 'inDegrees', this indicates whether rotational values are in degrees (yes) or radians (no).

endheader
time	pelvis_tilt	pelvis_list	pelvis_rotation	pelvis_tx	pelvis_ty	pelvis_tz	hip_flexion_r	hip_adduction_r	hip_rotation_r	knee_angle_r	knee_angle_r_beta	ankle_angle_r	subtalar_angle_r	mtp_angle_r	hip_flexion_l	hip_adduction_l	hip_rotation_l	knee_angle_l	knee_angle_l_beta	ankle_angle_l	subtalar_angle_l	mtp_angle_l	L5_S1_Flex_Ext	L5_S1_Lat_Bending	L5_S1_axial_rotation	L4_L5_Flex_Ext	L4_L5_Lat_Bending	L4_L5_axial_rotation	L3_L4_Flex_Ext	L3_L4_Lat_Bending	L3_L4_axial_rotation	L2_L3_Flex_Ext	L2_L3_Lat_Bending	L2_L3_axial_rotation	L1_L2_Flex_Ext	L1_L2_Lat_Bending	L1_L2_axial_rotation	L1_T12_Flex_Ext	L1_T12_Lat_Bending	L1_T12_axial_rotation	Abs_r3	Abs_r2	Abs_r1	Abs_t1	Abs_t2	neck_flexion	neck_bending	neck_rotation	arm_flex_r	arm_add_r	arm_rot_r	elbow_flex_r	pro_sup_r	wrist_flex_r	wrist_dev_r	arm_flex_l	arm_add_l	arm_rot_l	elbow_flex_l	pro_sup_l	wrist_flex_l	wrist_dev_l
      1.16666667	     -0.44301068	     -6.13353960	     87.31934016	      0.31251462	      0.73359605	      0.67466906	      0.97582882	     -0.34246125	      5.38837760	      1.73314664	      0.03024912	     16.71498683	      4.82885409	      0.00000000	      1.95460122	     -4.12047012	     -4.58062018	      4.68330699	      0.08173913	     20.12196551	      5.12994717	      0.00000000	      0.16394994	      0.23619851	      2.61640566	      0.30447144	      0.31414401	      2.77993102	      0.26935336	      0.57429305	      2.77993102	      0.18737839	      0.57429305	      2.28935496	      0.15224392	      0.48165599	      2.12582960	      0.09368100	      0.36587148	      1.96230425	      1.17107804	      2.67192473	     14.55166338	      0.00000000	      0.00000000	     28.06133489	     -8.89474406	    -13.72197071	     16.71951632	     -8.37246246	    130.22850664	     10.37940114	      3.95618577	      4.33802592	     -6.56625257	     22.95578342	      0.62668229	    171.90450942	      2.83085873	      4.69698765	    -18.45178608	     -6.89328266
      1.18333333	     -0.28604934	     -5.76545206	     87.48367598	      0.31225655	      0.73379533	      0.67336060	      0.38007228	     -0.20662922	      5.08861327	      1.43713066	      0.02508266	     16.93657913	      5.14006373	      0.00000000	      1.61583171	     -4.26602342	     -4.54832498	      4.81089628	      0.08396598	     20.47413138	      5.13359722	      0.00000000	      0.13062161	      0.25648803	      2.53903552	      0.24257739	      0.34112907	      2.69772524	      0.21459824	      0.62362499	      2.69772524	      0.14928744	      0.62362499	      2.22165608	      0.12129523	      0.52303038	      2.06296636	      0.07463719	      0.39729995	      1.90427664	      0.93301709	      2.90144385	     14.12135386	      0.00000000	      0.00000000	     28.03403846	     -8.75036587	    -13.48237848	     15.95268756	     -8.60266298	    127.54791178	     10.70430464	      3.74992874	      4.12600627	     -6.34881737	     22.24757091	      0.14960975	    165.74909476	      4.32139672	      3.19167810	    -16.47301750	     -8.25804568
      1.20000000	     -0.11007454	     -5.49993861	     87.69579648	      0.31206608	      0.73402056	      0.67216786	     -0.11119218	     -0.02865073	      5.18720867	      1.14504842	      0.01998487	     17.04389823	      4.97684525	      0.00000000	      1.37945445	     -4.46209323	     -4.89855481	      4.88791472	      0.08531021	     20.79962333	      5.76318628	      0.00000000	      0.11594007	      0.28366787	      2.44832341	      0.21531229	      0.37727827	      2.60134363	      0.19047793	      0.68971007	      2.60134363	      0.13250790	      0.68971007	      2.14228299	      0.10766194	      0.57845553	      1.98926277	      0.06624815	      0.43940153	      1.83624256	      0.82814829	      3.20890771	     13.61684032	      0.00000000	      0.00000000	     27.99660297	     -7.98752706	    -12.08876220	     15.17158696	     -8.98347228	    122.70067982	     11.43804593	      4.14405207	      3.86142442	     -5.47078889	     21.61032385	     -0.56631051	    156.21525871	      6.35410097	      4.47920986	    -15.09048443	    -10.59462264
      1.21666667	      0.03007330	     -5.21541186	     87.81692472	      0.31192063	      0.73439683	      0.67119039	     -0.56187923	      0.11702905	      5.91639623	      0.92270557	      0.01610425	     17.02666164	      4.04192187	      0.00000000	      1.15465900	     -4.61095265	     -5.06980436	      5.04187549	      0.08799733	     21.04743880	      6.01403429	      0.00000000	      0.09294756	      0.30392983	      2.39253942	      0.17261291	      0.40422667	      2.54207313	      0.15270355	      0.73897498	      2.54207313	      0.10622977	      0.73897498	      2.09347199	      0.08631110	      0.61977370	      1.94393828	      0.05311024	      0.47078730	      1.79440456	      0.66391512	      3.43811500	     13.30658648	      0.00000000	      0.00000000	     27.95424437	     -7.56768762	    -11.36391565	     14.45952144	     -9.18290010	    119.79731719	     11.71975384	      4.16775081	      3.85771015	     -5.11058679	     21.08153528	     -1.12327417	    150.93472340	      7.84038430	      4.87371998	    -13.81136397	    -11.78968959
      1.23333333	      0.14419291	     -5.02796889	     87.92181228	      0.31179613	      0.73471145	      0.67059407	     -0.84504764	      0.23922361	      6.43765089	      0.78144771	      0.01363884	     17.02648535	      3.41248764	      0.00000000	      1.07645324	     -4.73426563	     -5.03494712	      5.26509275	      0.09189320	     21.23451648	      6.00107876	      0.00000000	      0.07705770	      0.31806457	      2.34667326	      0.14310385	      0.42302588	      2.49334034	      0.12659809	      0.77334219	      2.49334034	      0.08806924	      0.77334219	      2.05333911	      0.07155578	      0.64859727	      1.90667203	      0.04403077	      0.49268202	      1.76000495	      0.55041544	      3.59801002	     13.05149270	      0.00000000	      0.00000000	     27.91206937	     -7.42008758	    -11.16673750	     13.90076645	     -9.24213907	    118.10374383	     11.76812246	      3.97168032	      4.00231663	     -4.86019115	     20.65101792	     -1.59596593	    147.52310535	      8.97251699	      4.58553527	    -12.36391700	    -12.75206108
      1.25000000	      0.29796663	     -4.85761110	     87.96771510	      0.31172920	      0.73498094	      0.67039845	     -1.05869558	      0.40518398	      6.62956452	      0.68721605	      0.01199418	     17.00574549	      3.20462476	      0.00000000	      1.07209507	     -4.90684741	     -4.99859971	      5.61563462	      0.09801131	     21.49873282	      5.90174556	      0.00000000	      0.05747111	      0.33469109	      2.34934703	      0.10672960	      0.44513915	      2.49618122	      0.09441929	      0.81376792	      2.49618122	      0.06568373	      0.81376792	      2.05567865	      0.05336767	      0.68250207	      1.90884446	      0.03283899	      0.51843650	      1.76201027	      0.41051039	      3.78609256	     13.06636337	      0.00000000	      0.00000000	     27.88738690	     -7.25156581	    -11.17128020	     13.40320582	     -9.27280179	    117.28414950	     11.59343046	      3.61182446	      4.37675985	     -5.17313728	     20.51827386	     -1.90322810	    145.78072479	     10.11604153	      3.84965140	    -11.46658780	    -13.39066280
      1.26666667	      0.42606793	     -4.87647043	     87.95527070	      0.31156399	      0.73496404	      0.67058013	     -1.03857533	      0.53771597	      6.92857743	      0.62822556	      0.01096460	     16.95886025	      2.92126311	      0.00000000	      1.24216109	     -5.04159073	     -4.90282548	      5.90285870	      0.10302432	     21.69947563	      5.72407451	      0.00000000	      0.06081644	      0.34995038	      2.33216047	      0.11294221	      0.46543400	      2.47792050	      0.09991533	      0.85086934	      2.47792050	      0.06950711	      0.85086934	      2.04064041	      0.05647415	      0.71361881	      1.89488038	      0.03475051	      0.54207313	      1.74912035	      0.43440574	      3.95870864	     12.97077687	      0.00000000	      0.00000000	     27.87128580	     -7.22170074	    -11.22845680	     13.12774203	     -9.31038220	    116.52194177	     11.62580239	      3.46727149	      4.62447631	     -5.21695238	     20.30579319	     -2.29617123	    142.82178358	     11.18344668	      2.91739168	    -10.25726506	    -14.13689531
